<svg width="64" height="64" viewBox="0 0 64 64" fill="none" xmlns="http://www.w3.org/2000/svg">
<rect x="0.5" y="0.5" width="63" height="63" rx="31.5" stroke="#229B55"/>
<rect x="4" y="4" width="56" height="56" rx="28" fill="#229B55"/>
<path d="M35.046 33.4541C34.9415 33.3495 34.8174 33.2665 34.6808 33.2099C34.5443 33.1533 34.3979 33.1241 34.25 33.1241C34.1022 33.1241 33.9558 33.1533 33.8192 33.2099C33.6826 33.2665 33.5586 33.3495 33.4541 33.4541L30.875 36.0346L27.9655 33.125L30.546 30.546C30.757 30.3349 30.8756 30.0486 30.8756 29.75C30.8756 29.4515 30.757 29.1652 30.546 28.9541C30.3349 28.743 30.0485 28.6244 29.75 28.6244C29.4515 28.6244 29.1652 28.743 28.9541 28.9541L26.375 31.5346L23.796 28.9541C23.5849 28.743 23.2985 28.6244 23 28.6244C22.7015 28.6244 22.4152 28.743 22.2041 28.9541C21.993 29.1652 21.8744 29.4515 21.8744 29.75C21.8744 30.0486 21.993 30.3349 22.2041 30.546L23.097 31.4375L19.8177 34.7155C19.3997 35.1334 19.0681 35.6295 18.8419 36.1755C18.6157 36.7216 18.4993 37.3068 18.4993 37.8978C18.4993 38.4889 18.6157 39.0741 18.8419 39.6202C19.0681 40.1662 19.3997 40.6623 19.8177 41.0802L20.5742 41.8353L16.5791 45.8291C16.4746 45.9336 16.3916 46.0577 16.3351 46.1943C16.2785 46.3308 16.2494 46.4772 16.2494 46.625C16.2494 46.7728 16.2785 46.9192 16.3351 47.0558C16.3916 47.1924 16.4746 47.3164 16.5791 47.421C16.7902 47.6321 17.0765 47.7507 17.375 47.7507C17.5228 47.7507 17.6692 47.7215 17.8058 47.665C17.9423 47.6084 18.0664 47.5255 18.171 47.421L22.1647 43.4258L22.9199 44.1824C23.3377 44.6003 23.8339 44.9319 24.3799 45.1581C24.9259 45.3843 25.5112 45.5008 26.1022 45.5008C26.6932 45.5008 27.2785 45.3843 27.8245 45.1581C28.3705 44.9319 28.8667 44.6003 29.2845 44.1824L32.5625 40.903L33.4541 41.796C33.5586 41.9005 33.6827 41.9834 33.8193 42.04C33.9558 42.0965 34.1022 42.1257 34.25 42.1257C34.3978 42.1257 34.5442 42.0965 34.6808 42.04C34.8173 41.9834 34.9414 41.9005 35.046 41.796C35.1505 41.6914 35.2334 41.5674 35.29 41.4308C35.3465 41.2942 35.3756 41.1478 35.3756 41C35.3756 40.8522 35.3465 40.7058 35.29 40.5693C35.2334 40.4327 35.1505 40.3086 35.046 40.2041L32.4655 37.625L35.046 35.046C35.1506 34.9415 35.2335 34.8174 35.2901 34.6808C35.3468 34.5443 35.3759 34.3979 35.3759 34.25C35.3759 34.1022 35.3468 33.9558 35.2901 33.8192C35.2335 33.6826 35.1506 33.5586 35.046 33.4541ZM27.6927 42.5947C27.2708 43.0164 26.6987 43.2532 26.1022 43.2532C25.5057 43.2532 24.9336 43.0164 24.5117 42.5947L21.4095 39.4883C20.9879 39.0664 20.7511 38.4943 20.7511 37.8978C20.7511 37.3014 20.9879 36.7293 21.4095 36.3074L24.6875 33.028L30.972 39.3125L27.6927 42.5947ZM47.421 16.5791C47.3165 16.4745 47.1924 16.3915 47.0558 16.3349C46.9193 16.2783 46.7729 16.2491 46.625 16.2491C46.4772 16.2491 46.3308 16.2783 46.1942 16.3349C46.0576 16.3915 45.9336 16.4745 45.8291 16.5791L41.8353 20.5742L41.0802 19.8177C40.2353 18.9753 39.0909 18.5022 37.8978 18.5022C36.7047 18.5022 35.5603 18.9753 34.7155 19.8177L31.4375 23.0971L30.546 22.2041C30.3349 21.993 30.0485 21.8744 29.75 21.8744C29.4515 21.8744 29.1652 21.993 28.9541 22.2041C28.743 22.4152 28.6244 22.7015 28.6244 23C28.6244 23.2986 28.743 23.5849 28.9541 23.796L40.2041 35.046C40.3086 35.1505 40.4327 35.2334 40.5693 35.29C40.7058 35.3465 40.8522 35.3757 41 35.3757C41.1478 35.3757 41.2942 35.3465 41.4308 35.29C41.5673 35.2334 41.6914 35.1505 41.796 35.046C41.9005 34.9414 41.9834 34.8174 42.04 34.6808C42.0965 34.5442 42.1256 34.3978 42.1256 34.25C42.1256 34.1022 42.0965 33.9558 42.04 33.8193C41.9834 33.6827 41.9005 33.5586 41.796 33.4541L40.903 32.5625L44.1824 29.2846C44.6003 28.8667 44.9319 28.3706 45.1581 27.8245C45.3843 27.2785 45.5007 26.6933 45.5007 26.1022C45.5007 25.5112 45.3843 24.9259 45.1581 24.3799C44.9319 23.8339 44.6003 23.3378 44.1824 22.9199L43.4258 22.1647L47.421 18.171C47.5256 18.0665 47.6085 17.9424 47.6651 17.8058C47.7218 17.6693 47.7509 17.5229 47.7509 17.375C47.7509 17.2272 47.7218 17.0808 47.6651 16.9442C47.6085 16.8076 47.5256 16.6836 47.421 16.5791ZM42.5905 27.6885L39.3125 30.9721L33.028 24.6875L36.3074 21.4096C36.7293 20.9879 37.3013 20.7511 37.8978 20.7511C38.4943 20.7511 39.0664 20.9879 39.4883 21.4096L42.5905 24.5033C42.8005 24.7124 42.9672 24.9609 43.0809 25.2345C43.1947 25.5082 43.2532 25.8016 43.2532 26.098C43.2532 26.3944 43.1947 26.6878 43.0809 26.9615C42.9672 27.2351 42.8005 27.4836 42.5905 27.6927V27.6885Z" fill="white"/>
</svg>
