<svg width="64" height="64" viewBox="0 0 64 64" fill="none" xmlns="http://www.w3.org/2000/svg">
<rect x="0.5" y="0.5" width="63" height="63" rx="31.5" stroke="#1E455A"/>
<rect x="4.5" y="4.5" width="55" height="55" rx="27.5" fill="#1E455A"/>
<rect x="4.5" y="4.5" width="55" height="55" rx="27.5" stroke="#4B6A7B"/>
<path d="M28.0324 20.6249C27.9674 20.3689 28.0064 20.0975 28.1409 19.8701C28.2753 19.6427 28.4942 19.4777 28.7499 19.4112C30.8817 18.8614 33.1181 18.8614 35.2499 19.4112C35.486 19.4716 35.6919 19.6163 35.8289 19.8178C35.966 20.0194 36.0246 20.2641 35.9939 20.5059C35.9632 20.7477 35.8453 20.97 35.6622 21.1309C35.4792 21.2919 35.2436 21.3804 34.9999 21.3799C34.9156 21.3795 34.8316 21.3686 34.7499 21.3474C32.9462 20.8817 31.0537 20.8817 29.2499 21.3474C29.1225 21.3801 28.99 21.3873 28.8598 21.3686C28.7296 21.35 28.6044 21.3058 28.4913 21.2387C28.3782 21.1716 28.2795 21.0829 28.2007 20.9775C28.122 20.8722 28.0648 20.7524 28.0324 20.6249ZM20.1687 29.7499C20.2952 29.7851 20.4275 29.795 20.5578 29.779C20.6882 29.763 20.8142 29.7215 20.9285 29.6569C21.0429 29.5922 21.1433 29.5057 21.2242 29.4022C21.3051 29.2987 21.3648 29.1803 21.3999 29.0537C21.8981 27.2592 22.8444 25.6207 24.1499 24.2924C24.3208 24.1007 24.4114 23.8506 24.4029 23.5939C24.3944 23.3372 24.2875 23.0936 24.1043 22.9136C23.9211 22.7336 23.6757 22.631 23.4188 22.6271C23.162 22.6231 22.9136 22.7182 22.7249 22.8924C21.1826 24.4619 20.0643 26.3974 19.4749 28.5174C19.4395 28.6439 19.4294 28.7761 19.4451 28.9065C19.4608 29.0369 19.5021 29.1629 19.5665 29.2774C19.6309 29.3918 19.7173 29.4925 19.8206 29.5736C19.9239 29.6546 20.0422 29.7146 20.1687 29.7499ZM34.7499 42.6524C32.9462 43.1182 31.0537 43.1182 29.2499 42.6524C28.9947 42.5907 28.7255 42.6318 28.5003 42.7669C28.2751 42.9019 28.1121 43.1201 28.0465 43.3744C27.9808 43.6286 28.0178 43.8984 28.1494 44.1256C28.281 44.3528 28.4967 44.5192 28.7499 44.5887C30.8817 45.1385 33.1181 45.1385 35.2499 44.5887C35.5031 44.5192 35.7188 44.3528 35.8504 44.1256C35.982 43.8984 36.019 43.6286 35.9533 43.3744C35.8877 43.1201 35.7247 42.9019 35.4995 42.7669C35.2744 42.6318 35.0051 42.5907 34.7499 42.6524ZM42.5999 29.0562C42.6709 29.3118 42.8404 29.5287 43.0713 29.6593C43.3022 29.7899 43.5756 29.8234 43.8312 29.7524C44.0868 29.6815 44.3037 29.5119 44.4343 29.281C44.5649 29.0501 44.5984 28.7768 44.5274 28.5212C43.9376 26.4014 42.8193 24.4659 41.2774 22.8962C41.1863 22.7989 41.0766 22.7207 40.9548 22.6664C40.833 22.6121 40.7016 22.5827 40.5683 22.5799C40.435 22.5771 40.3025 22.601 40.1785 22.6502C40.0546 22.6994 39.9417 22.7729 39.8466 22.8663C39.7515 22.9598 39.676 23.0713 39.6247 23.1944C39.5733 23.3174 39.547 23.4495 39.5475 23.5829C39.5479 23.7162 39.575 23.8481 39.6271 23.9708C39.6793 24.0935 39.7555 24.2046 39.8512 24.2974C41.1542 25.6262 42.0994 27.2634 42.5987 29.0562H42.5999ZM44.5299 35.4799C43.8683 37.8651 42.5375 40.011 40.6949 41.6637C40.5809 41.7666 40.4448 41.8418 40.2971 41.8836C40.1494 41.9254 39.994 41.9326 39.843 41.9047C39.692 41.8768 39.5495 41.8145 39.4265 41.7226C39.3035 41.6307 39.2033 41.5118 39.1337 41.3749C38.465 40.0574 37.4444 38.9508 36.1853 38.1778C34.9261 37.4048 33.4774 36.9957 31.9999 36.9957C30.5224 36.9957 29.0737 37.4048 27.8146 38.1778C26.5554 38.9508 25.5349 40.0574 24.8662 41.3749C24.7966 41.5117 24.6965 41.6305 24.5737 41.7224C24.4508 41.8142 24.3085 41.8766 24.1577 41.9046C24.0069 41.9326 23.8516 41.9256 23.704 41.884C23.5563 41.8425 23.4202 41.7675 23.3062 41.6649C21.4635 40.0113 20.1327 37.8646 19.4712 35.4787C19.4004 35.2231 19.434 34.9498 19.5647 34.7191C19.6954 34.4883 19.9124 34.3188 20.168 34.2481C20.4236 34.1773 20.6969 34.2109 20.9277 34.3416C21.1585 34.4723 21.3279 34.6893 21.3987 34.9449C21.846 36.561 22.6585 38.0527 23.7737 39.3049C24.8894 37.6866 26.4597 36.4352 28.2862 35.7087C27.3061 34.9372 26.5908 33.8794 26.2398 32.6825C25.8889 31.4856 25.9196 30.209 26.3279 29.0304C26.7361 27.8518 27.5015 26.8297 28.5177 26.1063C29.5338 25.3829 30.7501 24.9942 31.9974 24.9942C33.2447 24.9942 34.461 25.3829 35.4772 26.1063C36.4933 26.8297 37.2587 27.8518 37.6669 29.0304C38.0752 30.209 38.106 31.4856 37.755 32.6825C37.404 33.8794 36.6887 34.9372 35.7087 35.7087C37.5351 36.4352 39.1054 37.6866 40.2212 39.3049C41.3363 38.0527 42.1488 36.561 42.5962 34.9449C42.6313 34.8184 42.691 34.7 42.7719 34.5965C42.8528 34.493 42.9533 34.4065 43.0676 34.3418C43.1819 34.2772 43.3079 34.2357 43.4382 34.2197C43.5686 34.2037 43.7008 34.2136 43.8274 34.2487C43.954 34.2838 44.0724 34.3435 44.1759 34.4244C44.2793 34.5053 44.3659 34.6058 44.4305 34.7201C44.4952 34.8345 44.5367 34.9604 44.5527 35.0908C44.5686 35.2211 44.5588 35.3534 44.5237 35.4799H44.5299ZM31.9999 34.9999C32.791 34.9999 33.5644 34.7653 34.2222 34.3258C34.88 33.8863 35.3927 33.2616 35.6954 32.5307C35.9982 31.7998 36.0774 30.9955 35.9231 30.2196C35.7687 29.4437 35.3877 28.7309 34.8283 28.1715C34.2689 27.6121 33.5562 27.2311 32.7803 27.0768C32.0043 26.9225 31.2001 27.0017 30.4692 27.3044C29.7383 27.6072 29.1136 28.1199 28.674 28.7777C28.2345 29.4355 27.9999 30.2088 27.9999 30.9999C27.9999 32.0608 28.4213 33.0782 29.1715 33.8284C29.9216 34.5785 30.939 34.9999 31.9999 34.9999Z" fill="white"/>
</svg>
