<svg width="64" height="64" viewBox="0 0 64 64" fill="none" xmlns="http://www.w3.org/2000/svg">
<rect x="0.5" y="0.5" width="63" height="63" rx="31.5" stroke="#229B55"/>
<rect x="4" y="4" width="56" height="56" rx="28" fill="#229B55"/>
<path d="M32 17.375C29.1075 17.375 26.2799 18.2327 23.8748 19.8398C21.4697 21.4468 19.5952 23.7309 18.4883 26.4033C17.3813 29.0756 17.0917 32.0162 17.656 34.8532C18.2203 37.6902 19.6132 40.2961 21.6586 42.3414C23.7039 44.3868 26.3098 45.7797 29.1468 46.344C31.9838 46.9083 34.9244 46.6187 37.5968 45.5117C40.2691 44.4048 42.5532 42.5303 44.1602 40.1252C45.7673 37.7201 46.625 34.8926 46.625 32C46.6209 28.1225 45.0788 24.4049 42.3369 21.6631C39.5951 18.9213 35.8775 17.3791 32 17.375ZM32 44.375C29.5525 44.375 27.1599 43.6492 25.1248 42.2894C23.0898 40.9297 21.5036 38.9969 20.567 36.7357C19.6304 34.4745 19.3853 31.9863 19.8628 29.5858C20.3403 27.1852 21.5189 24.9802 23.2496 23.2496C24.9802 21.5189 27.1852 20.3403 29.5858 19.8628C31.9863 19.3853 34.4745 19.6304 36.7357 20.567C38.997 21.5036 40.9297 23.0898 42.2894 25.1248C43.6492 27.1599 44.375 29.5525 44.375 32C44.3713 35.2809 43.0663 38.4264 40.7463 40.7463C38.4264 43.0663 35.2809 44.3713 32 44.375ZM41 32C41 32.2984 40.8815 32.5845 40.6705 32.7955C40.4595 33.0065 40.1734 33.125 39.875 33.125H32C31.7016 33.125 31.4155 33.0065 31.2045 32.7955C30.9935 32.5845 30.875 32.2984 30.875 32V24.125C30.875 23.8266 30.9935 23.5405 31.2045 23.3295C31.4155 23.1185 31.7016 23 32 23C32.2984 23 32.5845 23.1185 32.7955 23.3295C33.0065 23.5405 33.125 23.8266 33.125 24.125V30.875H39.875C40.1734 30.875 40.4595 30.9935 40.6705 31.2045C40.8815 31.4155 41 31.7016 41 32Z" fill="white"/>
</svg>
