<svg width="52" height="52" viewBox="0 0 52 52" fill="none" xmlns="http://www.w3.org/2000/svg">
<rect width="52" height="52" rx="26" fill="white" fill-opacity="0.24"/>
<rect x="0.5" y="0.5" width="51" height="51" rx="25.5" stroke="white" stroke-opacity="0.15"/>
<path d="M32.9272 19.1244C32.03 18.2182 30.9629 17.4978 29.7869 17.0046C28.611 16.5114 27.3493 16.2549 26.0741 16.25H26C23.4141 16.25 20.9342 17.2772 19.1057 19.1057C17.2772 20.9342 16.25 23.4141 16.25 26V31.25C16.25 31.8467 16.4871 32.419 16.909 32.841C17.331 33.2629 17.9033 33.5 18.5 33.5H20C20.5967 33.5 21.169 33.2629 21.591 32.841C22.0129 32.419 22.25 31.8467 22.25 31.25V27.5C22.25 26.9033 22.0129 26.331 21.591 25.909C21.169 25.4871 20.5967 25.25 20 25.25H17.7838C17.9284 23.6862 18.5158 22.196 19.4771 20.9541C20.4384 19.7122 21.7338 18.77 23.2114 18.238C24.689 17.706 26.2877 17.6062 27.82 17.9504C29.3524 18.2945 30.7548 19.0682 31.8631 20.1809C33.2177 21.5425 34.0509 23.3366 34.2172 25.25H32C31.4033 25.25 30.831 25.4871 30.409 25.909C29.9871 26.331 29.75 26.9033 29.75 27.5V31.25C29.75 31.8467 29.9871 32.419 30.409 32.841C30.831 33.2629 31.4033 33.5 32 33.5H34.25C34.25 34.0967 34.0129 34.669 33.591 35.091C33.169 35.5129 32.5967 35.75 32 35.75H26.75C26.5511 35.75 26.3603 35.829 26.2197 35.9697C26.079 36.1103 26 36.3011 26 36.5C26 36.6989 26.079 36.8897 26.2197 37.0303C26.3603 37.171 26.5511 37.25 26.75 37.25H32C32.9946 37.25 33.9484 36.8549 34.6517 36.1516C35.3549 35.4484 35.75 34.4946 35.75 33.5V26C35.7549 24.7246 35.5081 23.4608 35.0237 22.2809C34.5393 21.1011 33.8268 20.0284 32.9272 19.1244ZM20 26.75C20.1989 26.75 20.3897 26.829 20.5303 26.9697C20.671 27.1103 20.75 27.3011 20.75 27.5V31.25C20.75 31.4489 20.671 31.6397 20.5303 31.7803C20.3897 31.921 20.1989 32 20 32H18.5C18.3011 32 18.1103 31.921 17.9697 31.7803C17.829 31.6397 17.75 31.4489 17.75 31.25V26.75H20ZM32 32C31.8011 32 31.6103 31.921 31.4697 31.7803C31.329 31.6397 31.25 31.4489 31.25 31.25V27.5C31.25 27.3011 31.329 27.1103 31.4697 26.9697C31.6103 26.829 31.8011 26.75 32 26.75H34.25V32H32Z" fill="white"/>
</svg>
