<svg width="1280" height="80" viewBox="0 0 1280 80" fill="none" xmlns="http://www.w3.org/2000/svg">
<g clip-path="url(#clip0_1_229)">
<path fill-rule="evenodd" clip-rule="evenodd" d="M110.556 31.6853C108.911 30.5865 106.978 30 105 30V20C108.956 20 112.822 21.173 116.111 23.3706C119.4 25.5682 121.964 28.6918 123.478 32.3463C124.991 36.0008 125.387 40.0222 124.616 43.9018C123.844 47.7814 121.939 51.3451 119.142 54.1421C116.345 56.9392 112.781 58.844 108.902 59.6157C105.022 60.3874 101.001 59.9913 97.3463 58.4776C93.6918 56.9638 90.5682 54.4004 88.3706 51.1114C86.173 47.8224 85 43.9556 85 40H95C95 41.9778 95.5865 43.9112 96.6853 45.5557C97.7841 47.2002 99.3459 48.4819 101.173 49.2388C103 49.9957 105.011 50.1937 106.951 49.8078C108.891 49.422 110.673 48.4696 112.071 47.0711C113.47 45.6725 114.422 43.8907 114.808 41.9509C115.194 40.0111 114.996 38.0004 114.239 36.1732C113.482 34.3459 112.2 32.7841 110.556 31.6853Z" fill="white"/>
<path fill-rule="evenodd" clip-rule="evenodd" d="M95 20C95 21.3132 94.7413 22.6136 94.2388 23.8268C93.7362 25.0401 92.9997 26.1425 92.0711 27.0711C91.1425 27.9997 90.0401 28.7363 88.8268 29.2388C87.6136 29.7413 86.3132 30 85 30L85 40C87.6264 40 90.2272 39.4827 92.6537 38.4776C95.0802 37.4725 97.285 35.9993 99.1421 34.1421C100.999 32.285 102.472 30.0802 103.478 27.6537C104.483 25.2272 105 22.6264 105 20L95 20Z" fill="white"/>
<path d="M210.619 34.4525H205.767V49.8648H210.619V34.4525Z" fill="white"/>
<path d="M206.307 31.5666C206.814 32.074 207.448 32.3277 208.209 32.3277C208.97 32.3277 209.594 32.074 210.08 31.5666C210.567 31.0381 210.81 30.4038 210.81 29.6638C210.81 28.9028 210.567 28.2685 210.08 27.7611C209.594 27.2537 208.97 27 208.209 27C207.448 27 206.814 27.2537 206.307 27.7611C205.82 28.2685 205.577 28.9028 205.577 29.6638C205.577 30.4038 205.82 31.0381 206.307 31.5666Z" fill="white"/>
<path d="M136.156 49.8648V27.4757H141.135V45.4885H151.061V49.8648H136.156Z" fill="white"/>
<path fill-rule="evenodd" clip-rule="evenodd" d="M160.027 50.2136C158.442 50.2136 157.004 49.8648 155.715 49.1671C154.446 48.4483 153.442 47.4758 152.702 46.2495C151.962 45.0233 151.592 43.6491 151.592 42.1269C151.592 40.6047 151.962 39.2411 152.702 38.036C153.442 36.8309 154.446 35.8795 155.715 35.1819C156.983 34.463 158.421 34.1036 160.027 34.1036C161.634 34.1036 163.072 34.4525 164.34 35.1501C165.609 35.8478 166.613 36.8098 167.353 38.036C168.093 39.2411 168.463 40.6047 168.463 42.1269C168.463 43.6491 168.093 45.0233 167.353 46.2495C166.613 47.4758 165.609 48.4483 164.34 49.1671C163.072 49.8648 161.634 50.2136 160.027 50.2136ZM160.027 45.8056C160.725 45.8056 161.338 45.6576 161.867 45.3616C162.395 45.0445 162.797 44.6111 163.072 44.0614C163.368 43.4906 163.516 42.8457 163.516 42.1269C163.516 41.4081 163.368 40.7844 163.072 40.2559C162.776 39.7062 162.364 39.2834 161.835 38.9874C161.328 38.6702 160.725 38.5117 160.027 38.5117C159.351 38.5117 158.748 38.6702 158.22 38.9874C157.691 39.2834 157.279 39.7062 156.983 40.2559C156.687 40.8056 156.539 41.4398 156.539 42.1586C156.539 42.8563 156.687 43.4906 156.983 44.0614C157.279 44.6111 157.691 45.0445 158.22 45.3616C158.748 45.6576 159.351 45.8056 160.027 45.8056Z" fill="white"/>
<path fill-rule="evenodd" clip-rule="evenodd" d="M172.306 55.8902C173.595 56.4821 175.086 56.7781 176.777 56.7781C178.426 56.7781 179.896 56.4504 181.185 55.795C182.475 55.1396 183.49 54.2306 184.23 53.0678C184.97 51.905 185.34 50.5308 185.34 48.9451V34.4525H180.583V35.488C180.229 35.1902 179.827 34.9402 179.378 34.7379C178.553 34.3362 177.612 34.1353 176.555 34.1353C175.139 34.1353 173.881 34.4736 172.781 35.1501C171.682 35.8055 170.815 36.7146 170.181 37.8774C169.547 39.0191 169.23 40.3087 169.23 41.7464C169.23 43.1629 169.547 44.4525 170.181 45.6153C170.815 46.7781 171.682 47.6978 172.781 48.3743C173.881 49.0508 175.139 49.3891 176.555 49.3891C177.591 49.3891 178.532 49.1883 179.378 48.7866C179.787 48.592 180.157 48.3627 180.488 48.0986V49.072C180.488 50.1502 180.139 50.9853 179.441 51.5773C178.765 52.1693 177.824 52.4652 176.619 52.4652C175.646 52.4652 174.811 52.2961 174.113 51.9578C173.437 51.6196 172.824 51.1227 172.274 50.4673L169.293 53.4483C170.033 54.5054 171.037 55.3194 172.306 55.8902ZM179.219 44.6322C178.733 44.9282 178.151 45.0762 177.475 45.0762C176.798 45.0762 176.206 44.9282 175.699 44.6322C175.213 44.3362 174.832 43.9345 174.557 43.4271C174.282 42.8986 174.145 42.3383 174.145 41.7464C174.145 41.1121 174.282 40.5413 174.557 40.0339C174.832 39.5265 175.223 39.1248 175.731 38.8288C176.238 38.5328 176.819 38.3848 177.475 38.3848C178.151 38.3848 178.733 38.5328 179.219 38.8288C179.726 39.1248 180.107 39.5265 180.361 40.0339C180.636 40.5413 180.773 41.1121 180.773 41.7464C180.773 42.3806 180.636 42.9514 180.361 43.4588C180.107 43.9451 179.726 44.3362 179.219 44.6322Z" fill="white"/>
<path fill-rule="evenodd" clip-rule="evenodd" d="M195.551 50.2136C193.965 50.2136 192.527 49.8648 191.238 49.1671C189.969 48.4483 188.965 47.4758 188.225 46.2495C187.485 45.0233 187.115 43.6491 187.115 42.1269C187.115 40.6047 187.485 39.2411 188.225 38.036C188.965 36.8309 189.969 35.8795 191.238 35.1819C192.506 34.463 193.944 34.1036 195.551 34.1036C197.157 34.1036 198.595 34.4525 199.863 35.1501C201.132 35.8478 202.136 36.8098 202.876 38.036C203.616 39.2411 203.986 40.6047 203.986 42.1269C203.986 43.6491 203.616 45.0233 202.876 46.2495C202.136 47.4758 201.132 48.4483 199.863 49.1671C198.595 49.8648 197.157 50.2136 195.551 50.2136ZM195.551 45.8056C196.248 45.8056 196.861 45.6576 197.39 45.3616C197.918 45.0445 198.32 44.6111 198.595 44.0614C198.891 43.4906 199.039 42.8457 199.039 42.1269C199.039 41.4081 198.891 40.7844 198.595 40.2559C198.299 39.7062 197.887 39.2834 197.358 38.9874C196.851 38.6702 196.248 38.5117 195.551 38.5117C194.874 38.5117 194.271 38.6702 193.743 38.9874C193.214 39.2834 192.802 39.7062 192.506 40.2559C192.21 40.8056 192.062 41.4398 192.062 42.1586C192.062 42.8563 192.21 43.4906 192.506 44.0614C192.802 44.6111 193.214 45.0445 193.743 45.3616C194.271 45.6576 194.874 45.8056 195.551 45.8056Z" fill="white"/>
<path fill-rule="evenodd" clip-rule="evenodd" d="M222.281 50.1819C221.246 50.1819 220.294 49.9811 219.427 49.5794C218.971 49.368 218.559 49.1156 218.191 48.8222V56.3659H213.402V34.4525H218.254V35.5162C218.606 35.2283 218.997 34.9794 219.427 34.7696C220.294 34.3467 221.246 34.1353 222.281 34.1353C223.74 34.1353 225.03 34.4842 226.15 35.1819C227.292 35.8795 228.18 36.8309 228.814 38.036C229.47 39.2411 229.797 40.6153 229.797 42.1586C229.797 43.702 229.47 45.0762 228.814 46.2813C228.18 47.4864 227.292 48.4377 226.15 49.1354C225.03 49.8331 223.74 50.1819 222.281 50.1819ZM221.394 45.8056C222.091 45.8056 222.694 45.647 223.201 45.3299C223.73 45.0128 224.142 44.5793 224.438 44.0297C224.734 43.48 224.882 42.8563 224.882 42.1586C224.882 41.4398 224.734 40.8056 224.438 40.2559C224.142 39.7062 223.73 39.2834 223.201 38.9874C222.694 38.6702 222.102 38.5117 221.425 38.5117C220.749 38.5117 220.146 38.6702 219.618 38.9874C219.11 39.2834 218.709 39.7062 218.413 40.2559C218.117 40.8056 217.969 41.4398 217.969 42.1586C217.969 42.8563 218.106 43.48 218.381 44.0297C218.677 44.5793 219.089 45.0128 219.618 45.3299C220.146 45.647 220.738 45.8056 221.394 45.8056Z" fill="white"/>
<path d="M234.546 49.8965C235.434 50.1291 236.332 50.2453 237.241 50.2453C239.165 50.2453 240.687 49.8014 241.808 48.9134C242.949 48.0255 243.52 46.831 243.52 45.3299C243.52 44.3574 243.341 43.5751 242.981 42.9832C242.622 42.3701 242.157 41.8838 241.586 41.5244C241.015 41.165 240.412 40.8795 239.778 40.6681C239.144 40.4567 238.541 40.277 237.971 40.129C237.4 39.981 236.935 39.8119 236.575 39.6216C236.216 39.4313 236.036 39.1776 236.036 38.8605C236.036 38.5645 236.174 38.3425 236.448 38.1945C236.723 38.0254 237.135 37.9409 237.685 37.9409C238.256 37.9409 238.837 38.0571 239.429 38.2897C240.042 38.5222 240.592 38.924 241.078 39.4948L243.837 36.7041C243.14 35.8161 242.231 35.1501 241.11 34.7062C240.011 34.2411 238.806 34.0085 237.495 34.0085C236.248 34.0085 235.159 34.2199 234.229 34.6427C233.298 35.0656 232.579 35.647 232.072 36.3869C231.565 37.1057 231.311 37.962 231.311 38.9557C231.311 39.8859 231.491 40.6576 231.85 41.2707C232.209 41.8626 232.675 42.3278 233.245 42.666C233.816 43.0043 234.419 43.2686 235.053 43.4588C235.687 43.6491 236.29 43.8288 236.861 43.998C237.431 44.146 237.897 44.3257 238.256 44.5371C238.637 44.7274 238.827 45.0128 238.827 45.3933C238.827 45.6893 238.668 45.9218 238.351 46.091C238.055 46.2601 237.622 46.3447 237.051 46.3447C236.226 46.3447 235.465 46.1967 234.768 45.9007C234.07 45.5836 233.467 45.1502 232.96 44.6005L230.201 47.3912C230.73 47.962 231.364 48.4695 232.104 48.9134C232.865 49.3362 233.679 49.6639 234.546 49.8965Z" fill="white"/>
<path d="M252.368 50.2136C250.952 50.2136 249.694 49.9282 248.595 49.3574C247.516 48.7654 246.671 47.962 246.058 46.9472C245.444 45.9113 245.138 44.7274 245.138 43.3954V34.4525H249.99V43.332C249.99 43.8605 250.074 44.3151 250.244 44.6956C250.434 45.0762 250.709 45.3722 251.068 45.5836C251.428 45.795 251.861 45.9007 252.368 45.9007C253.087 45.9007 253.658 45.6787 254.081 45.2347C254.504 44.7696 254.715 44.1354 254.715 43.332V34.4525H259.567V43.3637C259.567 44.7168 259.261 45.9113 258.647 46.9472C258.034 47.962 257.189 48.7654 256.11 49.3574C255.032 49.9282 253.785 50.2136 252.368 50.2136Z" fill="white"/>
<path d="M266.831 34.4525H261.979V49.8648H266.831V40.8584C266.831 40.3299 266.937 39.8859 267.148 39.5265C267.381 39.1671 267.688 38.8922 268.068 38.702C268.449 38.4905 268.882 38.3848 269.368 38.3848C270.066 38.3848 270.647 38.6068 271.112 39.0508C271.599 39.4736 271.842 40.0762 271.842 40.8584V49.8648H276.694V40.8584C276.694 40.3299 276.8 39.8859 277.011 39.5265C277.244 39.1671 277.55 38.8922 277.931 38.702C278.311 38.4905 278.745 38.3848 279.231 38.3848C279.929 38.3848 280.51 38.6068 280.975 39.0508C281.461 39.4736 281.704 40.0762 281.704 40.8584V49.8648H286.557V40.3193C286.557 39.0297 286.282 37.9303 285.732 37.0212C285.203 36.0909 284.474 35.3827 283.544 34.8965C282.635 34.389 281.588 34.1353 280.404 34.1353C279.199 34.1353 278.11 34.3996 277.138 34.9282C276.506 35.2649 275.954 35.6995 275.481 36.2319C275.04 35.675 274.504 35.2193 273.871 34.8647C273.026 34.3785 272.064 34.1353 270.986 34.1353C269.844 34.1353 268.819 34.3785 267.91 34.8647C267.514 35.067 267.155 35.3093 266.831 35.5916V34.4525Z" fill="white"/>
</g>
<g clip-path="url(#clip1_1_229)">
<path d="M385.071 48.608H396.742V45.0958H389.219V31.8665H385.071V48.608Z" fill="white"/>
<path d="M403.656 46.2666C401.992 46.2666 401.125 44.8149 401.125 42.6373C401.125 40.4597 401.992 38.9846 403.656 38.9846C405.32 38.9846 406.211 40.4597 406.211 42.6373C406.211 44.8149 405.32 46.2666 403.656 46.2666ZM403.68 48.9827C407.547 48.9827 410.078 46.2431 410.078 42.6373C410.078 39.0314 407.547 36.2919 403.68 36.2919C399.836 36.2919 397.258 39.0314 397.258 42.6373C397.258 46.2431 399.836 48.9827 403.68 48.9827Z" fill="white"/>
<path d="M416.771 52.7524C418.552 52.7524 420.122 52.3543 421.176 51.4178C422.137 50.5514 422.77 49.2402 422.77 47.4373V36.6197H419.114V37.9075H419.067C418.364 36.9007 417.286 36.2685 415.693 36.2685C412.716 36.2685 410.654 38.7504 410.654 42.2626C410.654 45.9387 413.162 47.9524 415.857 47.9524C417.31 47.9524 418.224 47.367 418.927 46.5709H419.02V47.7651C419.02 49.2168 418.341 50.0597 416.724 50.0597C415.458 50.0597 414.825 49.5212 414.615 48.889H410.912C411.287 51.3943 413.466 52.7524 416.771 52.7524ZM416.747 45.1192C415.318 45.1192 414.38 43.9485 414.38 42.1456C414.38 40.3192 415.318 39.1485 416.747 39.1485C418.341 39.1485 419.184 40.5065 419.184 42.1222C419.184 43.808 418.411 45.1192 416.747 45.1192Z" fill="white"/>
<path d="M430.287 46.2666C428.623 46.2666 427.756 44.8149 427.756 42.6373C427.756 40.4597 428.623 38.9846 430.287 38.9846C431.951 38.9846 432.841 40.4597 432.841 42.6373C432.841 44.8149 431.951 46.2666 430.287 46.2666ZM430.311 48.9827C434.177 48.9827 436.708 46.2431 436.708 42.6373C436.708 39.0314 434.177 36.2919 430.311 36.2919C426.467 36.2919 423.889 39.0314 423.889 42.6373C423.889 46.2431 426.467 48.9827 430.311 48.9827Z" fill="white"/>
<path d="M437.824 48.608H441.644V36.6197H437.824V48.608ZM437.824 34.9572H441.644V31.8665H437.824V34.9572Z" fill="white"/>
<path d="M443.301 52.5651H447.121V47.367H447.168C447.918 48.3739 449.02 48.9826 450.566 48.9826C453.707 48.9826 455.792 46.5007 455.792 42.6139C455.792 39.008 453.847 36.2685 450.66 36.2685C449.02 36.2685 447.848 36.9943 447.028 38.0714H446.957V36.6197H443.301V52.5651ZM449.582 46.0324C447.942 46.0324 447.004 44.6978 447.004 42.7543C447.004 40.8109 447.848 39.3358 449.512 39.3358C451.152 39.3358 451.926 40.6939 451.926 42.7543C451.926 44.7914 451.035 46.0324 449.582 46.0324Z" fill="white"/>
<path d="M462.011 48.9826C465.152 48.9826 467.472 47.6246 467.472 45.0022C467.472 41.9348 464.988 41.3963 462.879 41.0451C461.355 40.7641 459.996 40.647 459.996 39.8041C459.996 39.0548 460.723 38.7036 461.66 38.7036C462.715 38.7036 463.441 39.0314 463.582 40.1085H467.097C466.909 37.7436 465.081 36.2685 461.683 36.2685C458.848 36.2685 456.504 37.5797 456.504 40.1085C456.504 42.9183 458.731 43.4802 460.816 43.8314C462.41 44.1124 463.863 44.2295 463.863 45.3065C463.863 46.0792 463.136 46.5007 461.988 46.5007C460.723 46.5007 459.926 45.9153 459.785 44.7212H456.176C456.293 47.367 458.496 48.9826 462.011 48.9826Z" fill="white"/>
<path d="M472.661 48.9592C474.325 48.9592 475.379 48.3036 476.246 47.1329H476.317V48.608H479.973V36.6197H476.153V43.3163C476.153 44.7446 475.356 45.728 474.044 45.728C472.825 45.728 472.239 45.0021 472.239 43.6909V36.6197H468.443V44.487C468.443 47.1563 469.895 48.9592 472.661 48.9592Z" fill="white"/>
<path d="M481.635 48.608H485.455V41.888C485.455 40.4597 486.158 39.4529 487.353 39.4529C488.501 39.4529 489.04 40.2022 489.04 41.49V48.608H492.86V41.888C492.86 40.4597 493.54 39.4529 494.758 39.4529C495.907 39.4529 496.446 40.2022 496.446 41.49V48.608H500.266V40.8109C500.266 38.1182 498.906 36.2685 496.188 36.2685C494.641 36.2685 493.352 36.9241 492.415 38.3758H492.368C491.759 37.088 490.563 36.2685 488.993 36.2685C487.259 36.2685 486.111 37.088 485.361 38.329H485.291V36.6197H481.635V48.608Z" fill="white"/>
<path fill-rule="evenodd" clip-rule="evenodd" d="M354.628 59.3397C365.414 59.3397 374.158 50.6038 374.158 39.8275C374.158 29.0513 365.414 20.3154 354.628 20.3154C343.843 20.3154 335.099 29.0513 335.099 39.8275C335.099 50.6038 343.843 59.3397 354.628 59.3397ZM357.643 35.391C359.307 33.7277 359.307 31.031 357.643 29.3677C355.978 27.7044 353.279 27.7044 351.614 29.3677C349.949 31.031 349.949 33.7277 351.614 35.391L354.628 38.4026L357.643 35.391ZM359.069 42.8392C360.734 44.5025 363.433 44.5025 365.097 42.8392C366.762 41.1759 366.762 38.4792 365.097 36.8159C363.433 35.1527 360.734 35.1527 359.069 36.8159L356.055 39.8276L359.069 42.8392ZM357.643 50.2874C359.307 48.6241 359.307 45.9274 357.643 44.2641L354.628 41.2525L351.614 44.2641C349.949 45.9274 349.949 48.6241 351.614 50.2874C353.279 51.9507 355.978 51.9507 357.643 50.2874ZM344.159 42.8392C342.495 41.1759 342.495 38.4792 344.159 36.8159C345.824 35.1527 348.523 35.1527 350.188 36.8159L353.202 39.8276L350.188 42.8392C348.523 44.5025 345.824 44.5025 344.159 42.8392Z" fill="white"/>
</g>
<g clip-path="url(#clip2_1_229)">
<path d="M597.104 48.2462H608.772V44.734H601.251V31.5048H597.104V48.2462Z" fill="white"/>
<path d="M615.684 45.9048C614.021 45.9048 613.154 44.4531 613.154 42.2755C613.154 40.098 614.021 38.6229 615.684 38.6229C617.348 38.6229 618.238 40.098 618.238 42.2755C618.238 44.4531 617.348 45.9048 615.684 45.9048ZM615.708 48.6209C619.573 48.6209 622.104 45.8814 622.104 42.2755C622.104 38.6697 619.573 35.9302 615.708 35.9302C611.865 35.9302 609.288 38.6697 609.288 42.2755C609.288 45.8814 611.865 48.6209 615.708 48.6209Z" fill="white"/>
<path d="M628.795 52.3906C630.575 52.3906 632.145 51.9926 633.199 51.056C634.16 50.1897 634.793 48.8784 634.793 47.0755V36.258H631.138V37.5458H631.091C630.388 36.5389 629.31 35.9067 627.717 35.9067C624.742 35.9067 622.68 38.3887 622.68 41.9009C622.68 45.577 625.187 47.5906 627.881 47.5906C629.334 47.5906 630.247 47.0053 630.95 46.2092H631.044V47.4033C631.044 48.855 630.365 49.698 628.748 49.698C627.483 49.698 626.85 49.1594 626.639 48.5272H622.938C623.313 51.0326 625.491 52.3906 628.795 52.3906ZM628.771 44.7575C627.342 44.7575 626.405 43.5867 626.405 41.7838C626.405 39.9575 627.342 38.7867 628.771 38.7867C630.365 38.7867 631.208 40.1448 631.208 41.7604C631.208 43.4463 630.435 44.7575 628.771 44.7575Z" fill="white"/>
<path d="M642.308 45.9048C640.644 45.9048 639.777 44.4531 639.777 42.2755C639.777 40.098 640.644 38.6229 642.308 38.6229C643.971 38.6229 644.861 40.098 644.861 42.2755C644.861 44.4531 643.971 45.9048 642.308 45.9048ZM642.331 48.6209C646.197 48.6209 648.727 45.8814 648.727 42.2755C648.727 38.6697 646.197 35.9302 642.331 35.9302C638.489 35.9302 635.912 38.6697 635.912 42.2755C635.912 45.8814 638.489 48.6209 642.331 48.6209Z" fill="white"/>
<path d="M649.842 48.2462H653.661V36.2579H649.842V48.2462ZM649.842 34.5955H653.661V31.5048H649.842V34.5955Z" fill="white"/>
<path d="M655.318 52.2033H659.137V47.0053H659.184C659.933 48.0121 661.034 48.6209 662.581 48.6209C665.72 48.6209 667.805 46.1389 667.805 42.2521C667.805 38.6463 665.861 35.9067 662.674 35.9067C661.034 35.9067 659.863 36.6326 659.043 37.7097H658.973V36.258H655.318V52.2033ZM661.597 45.6706C659.957 45.6706 659.02 44.336 659.02 42.3926C659.02 40.4492 659.863 38.9741 661.526 38.9741C663.166 38.9741 663.94 40.3321 663.94 42.3926C663.94 44.4297 663.049 45.6706 661.597 45.6706Z" fill="white"/>
<path d="M674.023 48.6209C677.162 48.6209 679.482 47.2628 679.482 44.6404C679.482 41.5731 676.998 41.0345 674.89 40.6833C673.367 40.4023 672.008 40.2853 672.008 39.4423C672.008 38.6931 672.734 38.3419 673.671 38.3419C674.726 38.3419 675.452 38.6697 675.592 39.7467H679.107C678.919 37.3819 677.092 35.9067 673.695 35.9067C670.86 35.9067 668.517 37.218 668.517 39.7467C668.517 42.5565 670.743 43.1184 672.828 43.4697C674.421 43.7506 675.874 43.8677 675.874 44.9448C675.874 45.7175 675.147 46.1389 673.999 46.1389C672.734 46.1389 671.938 45.5536 671.797 44.3594H668.189C668.306 47.0053 670.508 48.6209 674.023 48.6209Z" fill="white"/>
<path d="M684.669 48.5974C686.332 48.5974 687.387 47.9418 688.254 46.7711H688.324V48.2462H691.979V36.2579H688.16V42.9545C688.16 44.3828 687.363 45.3662 686.051 45.3662C684.833 45.3662 684.247 44.6404 684.247 43.3292V36.2579H680.452V44.1253C680.452 46.7945 681.904 48.5974 684.669 48.5974Z" fill="white"/>
<path d="M693.64 48.2463H697.459V41.5263C697.459 40.098 698.162 39.0911 699.357 39.0911C700.505 39.0911 701.044 39.8404 701.044 41.1282V48.2463H704.862V41.5263C704.862 40.098 705.542 39.0911 706.76 39.0911C707.908 39.0911 708.447 39.8404 708.447 41.1282V48.2463H712.266V40.4492C712.266 37.7565 710.907 35.9067 708.189 35.9067C706.643 35.9067 705.354 36.5623 704.417 38.0141H704.37C703.761 36.7263 702.566 35.9067 700.997 35.9067C699.263 35.9067 698.115 36.7263 697.365 37.9672H697.295V36.258H693.64V48.2463Z" fill="white"/>
<path d="M573.805 21.9287L569.965 20.9005L566.73 32.9684L563.809 22.0734L559.969 23.1016L563.125 34.8728L555.264 27.0166L552.454 29.8256L561.076 38.4429L550.338 35.5674L549.31 39.4045L561.042 42.5463C560.908 41.9673 560.837 41.364 560.837 40.7441C560.837 36.3562 564.396 32.7991 568.786 32.7991C573.177 32.7991 576.736 36.3562 576.736 40.7441C576.736 41.36 576.666 41.9596 576.533 42.5352L587.196 45.3905L588.225 41.5535L576.446 38.3991L587.184 35.5234L586.155 31.6863L574.377 34.8405L582.238 26.9843L579.427 24.1754L570.924 32.6732L573.805 21.9287Z" fill="white"/>
<path d="M576.523 42.5799C576.194 43.9707 575.499 45.2202 574.545 46.2213L582.27 53.9414L585.081 51.1324L576.523 42.5799Z" fill="white"/>
<path d="M574.467 46.3021C573.502 47.2871 572.283 48.0223 570.915 48.4011L573.726 58.885L577.565 57.8568L574.467 46.3021Z" fill="white"/>
<path d="M570.772 48.4394C570.137 48.6024 569.472 48.6891 568.787 48.6891C568.052 48.6891 567.341 48.5896 566.666 48.4033L563.853 58.8968L567.692 59.9249L570.772 48.4394Z" fill="white"/>
<path d="M566.531 48.3646C565.184 47.9669 563.986 47.2225 563.041 46.2346L555.297 53.9736L558.108 56.7826L566.531 48.3646Z" fill="white"/>
<path d="M562.976 46.1661C562.047 45.172 561.37 43.9392 561.048 42.5698L550.35 45.4345L551.379 49.2716L562.976 46.1661Z" fill="white"/>
</g>
<g clip-path="url(#clip3_1_229)">
<path d="M811.64 47.4517H823.311V43.9395H815.788V30.7103H811.64V47.4517Z" fill="white"/>
<path d="M830.225 45.1103C828.561 45.1103 827.694 43.6585 827.694 41.481C827.694 39.3034 828.561 37.8283 830.225 37.8283C831.889 37.8283 832.779 39.3034 832.779 41.481C832.779 43.6585 831.889 45.1103 830.225 45.1103ZM830.248 47.8264C834.115 47.8264 836.646 45.0868 836.646 41.481C836.646 37.8751 834.115 35.1356 830.248 35.1356C826.405 35.1356 823.827 37.8751 823.827 41.481C823.827 45.0868 826.405 47.8264 830.248 47.8264Z" fill="white"/>
<path d="M843.34 51.5961C845.121 51.5961 846.691 51.198 847.745 50.2614C848.706 49.3951 849.339 48.0839 849.339 46.281V35.4634H845.683V36.7512H845.636C844.933 35.7444 843.855 35.1122 842.261 35.1122C839.285 35.1122 837.223 37.5941 837.223 41.1063C837.223 44.7824 839.73 46.7961 842.426 46.7961C843.879 46.7961 844.793 46.2107 845.496 45.4146H845.589V46.6088C845.589 48.0605 844.91 48.9034 843.293 48.9034C842.027 48.9034 841.394 48.3649 841.183 47.7327H837.481C837.856 50.238 840.035 51.5961 843.34 51.5961ZM843.316 43.9629C841.887 43.9629 840.949 42.7922 840.949 40.9893C840.949 39.1629 841.887 37.9922 843.316 37.9922C844.91 37.9922 845.753 39.3502 845.753 40.9658C845.753 42.6517 844.98 43.9629 843.316 43.9629Z" fill="white"/>
<path d="M856.856 45.1103C855.192 45.1103 854.325 43.6585 854.325 41.481C854.325 39.3034 855.192 37.8283 856.856 37.8283C858.52 37.8283 859.411 39.3034 859.411 41.481C859.411 43.6585 858.52 45.1103 856.856 45.1103ZM856.88 47.8264C860.746 47.8264 863.277 45.0868 863.277 41.481C863.277 37.8751 860.746 35.1356 856.88 35.1356C853.036 35.1356 850.458 37.8751 850.458 41.481C850.458 45.0868 853.036 47.8264 856.88 47.8264Z" fill="white"/>
<path d="M864.393 47.4517H868.212V35.4634H864.393V47.4517ZM864.393 33.801H868.212V30.7103H864.393V33.801Z" fill="white"/>
<path d="M869.871 51.4088H873.691V46.2107H873.737C874.487 47.2175 875.589 47.8263 877.136 47.8263C880.276 47.8263 882.362 45.3444 882.362 41.4575C882.362 37.8517 880.416 35.1122 877.229 35.1122C875.589 35.1122 874.417 35.838 873.597 36.9151H873.527V35.4634H869.871V51.4088ZM876.151 44.8761C874.511 44.8761 873.573 43.5415 873.573 41.598C873.573 39.6546 874.417 38.1795 876.081 38.1795C877.721 38.1795 878.495 39.5375 878.495 41.598C878.495 43.6351 877.604 44.8761 876.151 44.8761Z" fill="white"/>
<path d="M888.581 47.8263C891.721 47.8263 894.041 46.4683 894.041 43.8458C894.041 40.7785 891.557 40.24 889.448 39.8888C887.925 39.6078 886.565 39.4907 886.565 38.6478C886.565 37.8985 887.292 37.5473 888.229 37.5473C889.284 37.5473 890.01 37.8751 890.151 38.9522H893.666C893.479 36.5873 891.651 35.1122 888.253 35.1122C885.417 35.1122 883.073 36.4234 883.073 38.9522C883.073 41.7619 885.3 42.3239 887.386 42.6751C888.979 42.9561 890.432 43.0732 890.432 44.1502C890.432 44.9229 889.706 45.3444 888.557 45.3444C887.292 45.3444 886.495 44.759 886.354 43.5649H882.745C882.863 46.2107 885.065 47.8263 888.581 47.8263Z" fill="white"/>
<path d="M899.23 47.803C900.894 47.803 901.949 47.1473 902.816 45.9766H902.886V47.4517H906.542V35.4634H902.722V42.16C902.722 43.5883 901.925 44.5717 900.613 44.5717C899.394 44.5717 898.808 43.8459 898.808 42.5347V35.4634H895.012V43.3308C895.012 46 896.465 47.803 899.23 47.803Z" fill="white"/>
<path d="M908.203 47.4517H912.023V40.7317C912.023 39.3034 912.726 38.2966 913.921 38.2966C915.07 38.2966 915.609 39.0458 915.609 40.3336V47.4517H919.429V40.7317C919.429 39.3034 920.108 38.2966 921.327 38.2966C922.475 38.2966 923.014 39.0458 923.014 40.3336V47.4517H926.834V39.6546C926.834 36.9619 925.475 35.1122 922.756 35.1122C921.21 35.1122 919.921 35.7678 918.983 37.2195H918.936C918.327 35.9317 917.132 35.1122 915.562 35.1122C913.828 35.1122 912.679 35.9317 911.929 37.1727H911.859V35.4634H908.203V47.4517Z" fill="white"/>
<path fill-rule="evenodd" clip-rule="evenodd" d="M781.197 59.159C791.983 59.159 800.727 50.4231 800.727 39.6468C800.727 28.8706 791.983 20.1346 781.197 20.1346C770.412 20.1346 761.668 28.8706 761.668 39.6468C761.668 50.4231 770.412 59.159 781.197 59.159ZM787.29 29.2242C787.586 28.1718 786.564 27.5494 785.631 28.214L772.598 37.4903C771.585 38.211 771.744 39.6468 772.837 39.6468H776.269V39.6203H782.957L777.507 41.5415L775.105 50.0694C774.808 51.1219 775.83 51.7443 776.764 51.0797L789.797 41.8034C790.81 41.0827 790.65 39.6468 789.558 39.6468H784.353L787.29 29.2242Z" fill="white"/>
</g>
<g clip-path="url(#clip4_1_229)">
<path d="M995 60C1006.05 60 1015 51.046 1015 40V26C1015 24.4087 1014.37 22.8826 1013.24 21.7574C1012.12 20.6321 1010.59 20 1009 20H996V28.774C996 30.776 996.122 32.85 997.172 34.554C997.924 35.7752 998.929 36.8204 1000.12 37.6188C1001.31 38.4171 1002.66 38.9499 1004.08 39.181L1004.46 39.243C1004.62 39.297 1004.75 39.399 1004.85 39.5347C1004.95 39.6704 1005 39.8331 1005 40C1005 40.1669 1004.95 40.3296 1004.85 40.4653C1004.75 40.601 1004.62 40.703 1004.46 40.757L1004.08 40.819C1002.01 41.1568 1000.1 42.1356 998.617 43.6171C997.136 45.0987 996.157 47.0082 995.819 49.076L995.757 49.459C995.703 49.6169 995.601 49.754 995.465 49.851C995.33 49.9481 995.167 50.0003 995 50.0003C994.833 50.0003 994.67 49.9481 994.535 49.851C994.399 49.754 994.297 49.6169 994.243 49.459L994.181 49.076C993.95 47.6607 993.417 46.3118 992.619 45.1205C991.82 43.9293 990.775 42.9237 989.554 42.172C987.85 41.122 985.776 41 983.774 41H975.024C975.547 51.581 984.29 60 995 60Z" fill="white"/>
<path d="M975 39H983.774C985.776 39 987.85 38.878 989.554 37.828C990.886 37.0073 992.007 35.886 992.828 34.554C993.878 32.85 994 30.776 994 28.774V20H981C979.409 20 977.883 20.6321 976.757 21.7574C975.632 22.8826 975 24.4087 975 26V39ZM1021.46 22C1021.46 22.5304 1021.24 23.0391 1020.87 23.4142C1020.49 23.7893 1019.99 24 1019.46 24C1018.92 24 1018.42 23.7893 1018.04 23.4142C1017.67 23.0391 1017.46 22.5304 1017.46 22C1017.46 21.4696 1017.67 20.9609 1018.04 20.5858C1018.42 20.2107 1018.92 20 1019.46 20C1019.99 20 1020.49 20.2107 1020.87 20.5858C1021.24 20.9609 1021.46 21.4696 1021.46 22ZM1186.71 32.104C1192.3 32.104 1195 36.009 1195 40.532V49.027H1189.15V41.54C1189.15 39.49 1188.4 37.798 1186.26 37.798C1184.11 37.798 1183.4 39.49 1183.4 41.54V49.026H1177.54V41.54C1177.54 39.49 1176.83 37.798 1174.68 37.798C1172.54 37.798 1171.79 39.49 1171.79 41.54V49.026H1165.94V40.531C1165.94 36.008 1168.64 32.103 1174.23 32.103C1177.29 32.103 1179.5 33.307 1180.5 35.292C1181.58 33.307 1183.92 32.102 1186.71 32.102V32.104ZM1155.43 43.82C1157.31 43.82 1158.12 42.095 1158.12 40.044V32.754H1163.98V40.76C1163.98 45.544 1161.18 49.515 1155.43 49.515C1149.67 49.515 1146.88 45.545 1146.88 40.76V32.754H1152.73V40.044C1152.73 42.094 1153.54 43.82 1155.43 43.82ZM1138.27 49.547C1134.6 49.547 1132.23 48.278 1130.83 45.805L1135.06 43.429C1135.64 44.47 1136.52 44.991 1137.98 44.991C1139.18 44.991 1139.74 44.568 1139.74 44.047C1139.74 42.062 1131.16 44.08 1131.16 37.767C1131.16 34.707 1133.76 32.234 1138.18 32.234C1142.04 32.234 1144.16 34.121 1145.1 35.944L1140.88 38.352C1140.52 37.376 1139.41 36.79 1138.31 36.79C1137.46 36.79 1137.01 37.148 1137.01 37.636C1137.01 39.654 1145.59 37.799 1145.59 43.917C1145.59 47.334 1142.24 49.547 1138.27 49.547ZM1117.83 56.512H1111.98V40.858C1111.98 35.878 1115.72 32.266 1120.92 32.266C1125.99 32.266 1129.86 36.139 1129.86 40.858C1129.86 46.065 1126.41 49.515 1121.25 49.515C1120.04 49.515 1118.84 49.157 1117.83 48.603V56.512ZM1120.92 44.015C1122.77 44.015 1124.01 42.583 1124.01 40.89C1124.01 39.166 1122.77 37.766 1120.92 37.766C1119.07 37.766 1117.83 39.166 1117.83 40.891C1117.83 42.583 1119.07 44.015 1120.92 44.015ZM1106.12 31.03C1104.2 31.03 1102.61 29.435 1102.61 27.515C1102.61 25.595 1104.2 24 1106.12 24C1108.04 24 1109.63 25.595 1109.63 27.515C1109.63 29.435 1108.04 31.03 1106.12 31.03ZM1103.2 32.754H1109.05V49.027H1103.2V32.754ZM1091.97 49.515C1086.9 49.515 1083.03 45.61 1083.03 40.858C1083.03 36.139 1086.9 32.234 1091.97 32.234C1097.04 32.234 1100.91 36.139 1100.91 40.858C1100.91 45.61 1097.04 49.515 1091.97 49.515ZM1091.97 44.015C1093.82 44.015 1095.06 42.583 1095.06 40.89C1095.06 39.166 1093.82 37.734 1091.97 37.734C1090.12 37.734 1088.88 39.166 1088.88 40.89C1088.88 42.583 1090.12 44.015 1091.97 44.015ZM1071.98 57C1067.95 57 1065.03 55.21 1063.53 52.02L1068.38 49.417C1068.89 50.524 1069.87 51.663 1071.89 51.663C1074 51.663 1075.4 50.328 1075.56 47.985C1074.78 48.669 1073.54 49.189 1071.69 49.189C1067.17 49.189 1063.53 45.707 1063.53 40.825C1063.53 36.107 1067.4 32.266 1072.47 32.266C1077.67 32.266 1081.41 35.879 1081.41 40.858V47.302C1081.41 53.16 1077.35 57 1071.98 57ZM1072.37 43.69C1074.13 43.69 1075.46 42.485 1075.46 40.695C1075.46 38.938 1074.13 37.766 1072.37 37.766C1070.65 37.766 1069.29 38.938 1069.29 40.696C1069.29 42.486 1070.65 43.689 1072.37 43.689V43.69ZM1053.61 49.515C1048.54 49.515 1044.67 45.61 1044.67 40.858C1044.67 36.139 1048.54 32.234 1053.61 32.234C1058.68 32.234 1062.55 36.139 1062.55 40.858C1062.55 45.61 1058.68 49.515 1053.61 49.515ZM1053.61 44.015C1055.46 44.015 1056.69 42.583 1056.69 40.89C1056.69 39.166 1055.46 37.734 1053.61 37.734C1051.75 37.734 1050.52 39.166 1050.52 40.89C1050.52 42.583 1051.75 44.015 1053.61 44.015ZM1034.01 27.06V43.494H1043.7V49.027H1033.2C1029.5 49.027 1028 47.074 1028 43.982V27.06H1034.01Z" fill="white"/>
</g>
<defs>
<clipPath id="clip0_1_229">
<rect width="202" height="40" fill="white" transform="translate(85 20)"/>
</clipPath>
<clipPath id="clip1_1_229">
<rect width="166" height="40" fill="white" transform="translate(335 20)"/>
</clipPath>
<clipPath id="clip2_1_229">
<rect width="164" height="40" fill="white" transform="translate(549 20)"/>
</clipPath>
<clipPath id="clip3_1_229">
<rect width="166" height="40" fill="white" transform="translate(761 20)"/>
</clipPath>
<clipPath id="clip4_1_229">
<rect width="220" height="40" fill="white" transform="translate(975 20)"/>
</clipPath>
</defs>
</svg>
