<svg width="34" height="34" viewBox="0 0 34 34" fill="none" xmlns="http://www.w3.org/2000/svg">
<rect x="0.5" y="0.5" width="33" height="33" rx="16.5" fill="#FAFAFA"/>
<rect x="0.5" y="0.5" width="33" height="33" rx="16.5" stroke="white"/>
<path d="M23 17C23 17.1326 22.9473 17.2598 22.8536 17.3536C22.7598 17.4473 22.6326 17.5 22.5 17.5H17.5V22.5C17.5 22.6326 17.4473 22.7598 17.3536 22.8536C17.2598 22.9473 17.1326 23 17 23C16.8674 23 16.7402 22.9473 16.6464 22.8536C16.5527 22.7598 16.5 22.6326 16.5 22.5V17.5H11.5C11.3674 17.5 11.2402 17.4473 11.1464 17.3536C11.0527 17.2598 11 17.1326 11 17C11 16.8674 11.0527 16.7402 11.1464 16.6464C11.2402 16.5527 11.3674 16.5 11.5 16.5H16.5V11.5C16.5 11.3674 16.5527 11.2402 16.6464 11.1464C16.7402 11.0527 16.8674 11 17 11C17.1326 11 17.2598 11.0527 17.3536 11.1464C17.4473 11.2402 17.5 11.3674 17.5 11.5V16.5H22.5C22.6326 16.5 22.7598 16.5527 22.8536 16.6464C22.9473 16.7402 23 16.8674 23 17Z" fill="#130E0C"/>
</svg>
