<svg width="52" height="52" viewBox="0 0 52 52" fill="none" xmlns="http://www.w3.org/2000/svg">
<rect width="52" height="52" rx="26" fill="white" fill-opacity="0.24"/>
<rect x="0.5" y="0.5" width="51" height="51" rx="25.5" stroke="white" stroke-opacity="0.15"/>
<path d="M34.3034 17.6966C33.1121 16.5036 31.5536 15.7468 29.8794 15.5483C28.2052 15.3498 26.513 15.7212 25.0758 16.6026C23.6385 17.4839 22.5402 18.8238 21.9579 20.406C21.3757 21.9882 21.3435 23.7204 21.8666 25.3231L16.6897 30.5C16.5498 30.6388 16.4389 30.804 16.3634 30.986C16.2879 31.168 16.2494 31.3632 16.25 31.5603V34.25C16.25 34.6478 16.408 35.0293 16.6893 35.3107C16.9707 35.592 17.3522 35.75 17.75 35.75H20.75C20.9489 35.75 21.1397 35.671 21.2803 35.5303C21.421 35.3897 21.5 35.1989 21.5 35V33.5H23C23.1989 33.5 23.3897 33.421 23.5303 33.2803C23.671 33.1397 23.75 32.9489 23.75 32.75V31.25H25.25C25.3485 31.2501 25.4461 31.2307 25.5371 31.1931C25.6282 31.1555 25.7109 31.1002 25.7806 31.0306L26.6769 30.1334C27.4271 30.3774 28.2111 30.5012 29 30.5H29.0094C30.492 30.4982 31.9408 30.057 33.1728 29.2322C34.4048 28.4074 35.3646 27.2359 35.9312 25.8658C36.4977 24.4957 36.6454 22.9885 36.3557 21.5344C36.066 20.0804 35.3518 18.7449 34.3034 17.6966ZM35 23.1969C34.8978 26.3928 32.2109 28.9962 29.0103 29H29C28.2408 29.0013 27.4883 28.8578 26.7828 28.5772C26.6448 28.5173 26.492 28.5003 26.3442 28.5284C26.1964 28.5565 26.0605 28.6283 25.9541 28.7347L24.9397 29.75H23C22.8011 29.75 22.6103 29.829 22.4697 29.9697C22.329 30.1103 22.25 30.3011 22.25 30.5V32H20.75C20.5511 32 20.3603 32.079 20.2197 32.2197C20.079 32.3603 20 32.5511 20 32.75V34.25H17.75V31.5603L23.2653 26.0459C23.3717 25.9395 23.4435 25.8036 23.4716 25.6558C23.4997 25.508 23.4827 25.3552 23.4228 25.2172C23.1413 24.5094 22.9978 23.7542 23 22.9925C23 19.7919 25.6072 17.105 28.8031 17.0028C29.6241 16.9754 30.4419 17.1169 31.2059 17.4184C31.97 17.72 32.664 18.1752 33.2449 18.7559C33.8259 19.3365 34.2814 20.0303 34.5833 20.7942C34.8852 21.5582 35.027 22.3759 35 23.1969ZM32 21.125C32 21.3475 31.934 21.565 31.8104 21.75C31.6868 21.935 31.5111 22.0792 31.3055 22.1644C31.1 22.2495 30.8738 22.2718 30.6555 22.2284C30.4373 22.185 30.2368 22.0778 30.0795 21.9205C29.9222 21.7632 29.815 21.5627 29.7716 21.3445C29.7282 21.1262 29.7505 20.9 29.8356 20.6945C29.9208 20.4889 30.065 20.3132 30.25 20.1896C30.435 20.066 30.6525 20 30.875 20C31.1734 20 31.4595 20.1185 31.6705 20.3295C31.8815 20.5405 32 20.8266 32 21.125Z" fill="white"/>
</svg>
