<svg width="64" height="64" viewBox="0 0 64 64" fill="none" xmlns="http://www.w3.org/2000/svg">
<rect x="0.5" y="0.5" width="63" height="63" rx="31.5" stroke="#229B55"/>
<rect x="4" y="4" width="56" height="56" rx="28" fill="#229B55"/>
<path d="M28.0324 20.625C27.9674 20.3689 28.0064 20.0976 28.1409 19.8702C28.2753 19.6427 28.4942 19.4778 28.7499 19.4113C30.8817 18.8615 33.1181 18.8615 35.2499 19.4113C35.486 19.4717 35.6919 19.6163 35.8289 19.8179C35.966 20.0195 36.0246 20.2642 35.9939 20.506C35.9632 20.7478 35.8453 20.97 35.6622 21.131C35.4792 21.2919 35.2436 21.3805 34.9999 21.38C34.9156 21.3796 34.8316 21.3686 34.7499 21.3475C32.9462 20.8818 31.0537 20.8818 29.2499 21.3475C29.1225 21.3802 28.99 21.3874 28.8598 21.3687C28.7296 21.35 28.6044 21.3059 28.4913 21.2388C28.3782 21.1717 28.2795 21.0829 28.2007 20.9776C28.122 20.8723 28.0648 20.7525 28.0324 20.625ZM20.1687 29.75C20.2952 29.7852 20.4275 29.795 20.5578 29.7791C20.6882 29.7631 20.8142 29.7216 20.9285 29.6569C21.0429 29.5923 21.1433 29.5057 21.2242 29.4022C21.3051 29.2987 21.3648 29.1803 21.3999 29.0538C21.8981 27.2592 22.8444 25.6208 24.1499 24.2925C24.3208 24.1008 24.4114 23.8507 24.4029 23.594C24.3944 23.3373 24.2875 23.0937 24.1043 22.9137C23.9211 22.7337 23.6757 22.6311 23.4188 22.6272C23.162 22.6232 22.9136 22.7182 22.7249 22.8925C21.1826 24.462 20.0643 26.3975 19.4749 28.5175C19.4395 28.644 19.4294 28.7762 19.4451 28.9066C19.4608 29.037 19.5021 29.163 19.5665 29.2775C19.6309 29.3919 19.7173 29.4925 19.8206 29.5736C19.9239 29.6547 20.0422 29.7146 20.1687 29.75ZM34.7499 42.6525C32.9462 43.1182 31.0537 43.1182 29.2499 42.6525C28.9947 42.5908 28.7255 42.6318 28.5003 42.7669C28.2751 42.902 28.1121 43.1202 28.0465 43.3744C27.9808 43.6287 28.0178 43.8985 28.1494 44.1257C28.281 44.3529 28.4967 44.5192 28.7499 44.5888C30.8817 45.1386 33.1181 45.1386 35.2499 44.5888C35.5031 44.5192 35.7188 44.3529 35.8504 44.1257C35.982 43.8985 36.019 43.6287 35.9533 43.3744C35.8877 43.1202 35.7247 42.902 35.4995 42.7669C35.2744 42.6318 35.0051 42.5908 34.7499 42.6525ZM42.5999 29.0563C42.6709 29.3119 42.8404 29.5288 43.0713 29.6594C43.3022 29.79 43.5756 29.8234 43.8312 29.7525C44.0868 29.6816 44.3037 29.512 44.4343 29.2811C44.5649 29.0502 44.5984 28.7769 44.5274 28.5213C43.9376 26.4014 42.8193 24.466 41.2774 22.8963C41.1863 22.7989 41.0766 22.7208 40.9548 22.6665C40.833 22.6122 40.7016 22.5827 40.5683 22.58C40.435 22.5772 40.3025 22.6011 40.1785 22.6503C40.0546 22.6995 39.9417 22.773 39.8466 22.8664C39.7515 22.9599 39.676 23.0714 39.6247 23.1944C39.5733 23.3175 39.547 23.4496 39.5475 23.5829C39.5479 23.7163 39.575 23.8482 39.6271 23.9709C39.6793 24.0936 39.7555 24.2047 39.8512 24.2975C41.1542 25.6262 42.0994 27.2634 42.5987 29.0563H42.5999ZM44.5299 35.48C43.8683 37.8652 42.5375 40.011 40.6949 41.6638C40.5809 41.7666 40.4448 41.8419 40.2971 41.8837C40.1494 41.9255 39.994 41.9327 39.843 41.9047C39.692 41.8768 39.5495 41.8145 39.4265 41.7227C39.3035 41.6308 39.2033 41.5118 39.1337 41.375C38.465 40.0575 37.4444 38.9509 36.1853 38.1779C34.9261 37.4049 33.4774 36.9957 31.9999 36.9957C30.5224 36.9957 29.0737 37.4049 27.8146 38.1779C26.5554 38.9509 25.5349 40.0575 24.8662 41.375C24.7966 41.5117 24.6965 41.6306 24.5737 41.7224C24.4508 41.8143 24.3085 41.8766 24.1577 41.9047C24.0069 41.9327 23.8516 41.9257 23.704 41.8841C23.5563 41.8426 23.4202 41.7676 23.3062 41.665C21.4635 40.0113 20.1327 37.8647 19.4712 35.4788C19.4004 35.2232 19.434 34.9499 19.5647 34.7191C19.6954 34.4883 19.9124 34.3189 20.168 34.2481C20.4236 34.1773 20.6969 34.211 20.9277 34.3417C21.1585 34.4724 21.3279 34.6894 21.3987 34.945C21.846 36.561 22.6585 38.0527 23.7737 39.305C24.8894 37.6867 26.4597 36.4353 28.2862 35.7088C27.3061 34.9372 26.5908 33.8795 26.2398 32.6825C25.8889 31.4856 25.9196 30.2091 26.3279 29.0305C26.7361 27.8518 27.5015 26.8298 28.5177 26.1064C29.5338 25.383 30.7501 24.9942 31.9974 24.9942C33.2447 24.9942 34.461 25.383 35.4772 26.1064C36.4933 26.8298 37.2587 27.8518 37.6669 29.0305C38.0752 30.2091 38.106 31.4856 37.755 32.6825C37.404 33.8795 36.6887 34.9372 35.7087 35.7088C37.5351 36.4353 39.1054 37.6867 40.2212 39.305C41.3363 38.0527 42.1488 36.561 42.5962 34.945C42.6313 34.8184 42.691 34.7 42.7719 34.5966C42.8528 34.4931 42.9533 34.4065 43.0676 34.3419C43.1819 34.2772 43.3079 34.2357 43.4382 34.2197C43.5686 34.2038 43.7008 34.2136 43.8274 34.2488C43.954 34.2839 44.0724 34.3436 44.1759 34.4245C44.2793 34.5054 44.3659 34.6058 44.4305 34.7202C44.4952 34.8345 44.5367 34.9605 44.5527 35.0908C44.5686 35.2212 44.5588 35.3534 44.5237 35.48H44.5299ZM31.9999 35C32.791 35 33.5644 34.7654 34.2222 34.3259C34.88 33.8864 35.3927 33.2616 35.6954 32.5307C35.9982 31.7998 36.0774 30.9956 35.9231 30.2196C35.7687 29.4437 35.3877 28.731 34.8283 28.1716C34.2689 27.6122 33.5562 27.2312 32.7803 27.0769C32.0043 26.9225 31.2001 27.0017 30.4692 27.3045C29.7383 27.6072 29.1136 28.1199 28.674 28.7777C28.2345 29.4355 27.9999 30.2089 27.9999 31C27.9999 32.0609 28.4213 33.0783 29.1715 33.8284C29.9216 34.5786 30.939 35 31.9999 35Z" fill="white"/>
</svg>
