<svg width="17" height="16" viewBox="0 0 17 16" fill="none" xmlns="http://www.w3.org/2000/svg">
<path d="M13.8537 6.35375L8.85372 11.3538C8.80729 11.4002 8.75214 11.4371 8.69144 11.4623C8.63074 11.4874 8.56568 11.5004 8.49997 11.5004C8.43427 11.5004 8.3692 11.4874 8.3085 11.4623C8.2478 11.4371 8.19266 11.4002 8.14622 11.3538L3.14622 6.35375C3.0524 6.25993 2.99969 6.13269 2.99969 6C2.99969 5.86732 3.0524 5.74007 3.14622 5.64625C3.24004 5.55243 3.36729 5.49973 3.49997 5.49973C3.63265 5.49973 3.7599 5.55243 3.85372 5.64625L8.49997 10.2931L13.1462 5.64625C13.1927 5.5998 13.2478 5.56295 13.3085 5.53781C13.3692 5.51267 13.4343 5.49973 13.5 5.49973C13.5657 5.49973 13.6307 5.51267 13.6914 5.53781C13.7521 5.56295 13.8073 5.5998 13.8537 5.64625C13.9002 5.69271 13.937 5.74786 13.9622 5.80856C13.9873 5.86925 14.0003 5.93431 14.0003 6C14.0003 6.0657 13.9873 6.13076 13.9622 6.19145C13.937 6.25215 13.9002 6.3073 13.8537 6.35375Z" fill="#080D0B"/>
</svg>
