<svg width="64" height="64" viewBox="0 0 64 64" fill="none" xmlns="http://www.w3.org/2000/svg">
<rect x="0.5" y="0.5" width="63" height="63" rx="31.5" stroke="#229B55"/>
<rect x="4" y="4" width="56" height="56" rx="28" fill="#229B55"/>
<path d="M32 26.375C30.8875 26.375 29.7999 26.7049 28.8749 27.323C27.9499 27.9411 27.2289 28.8196 26.8032 29.8474C26.3774 30.8752 26.266 32.0062 26.4831 33.0974C26.7001 34.1885 27.2359 35.1908 28.0225 35.9775C28.8092 36.7641 29.8115 37.2999 30.9026 37.5169C31.9938 37.734 33.1248 37.6226 34.1526 37.1968C35.1804 36.7711 36.0589 36.0501 36.677 35.1251C37.2951 34.2001 37.625 33.1125 37.625 32C37.625 30.5082 37.0324 29.0774 35.9775 28.0225C34.9226 26.9676 33.4918 26.375 32 26.375ZM32 35.375C31.3325 35.375 30.68 35.1771 30.125 34.8062C29.5699 34.4354 29.1374 33.9083 28.8819 33.2916C28.6265 32.6749 28.5596 31.9963 28.6898 31.3416C28.8201 30.6869 29.1415 30.0855 29.6135 29.6135C30.0855 29.1415 30.6869 28.8201 31.3416 28.6898C31.9963 28.5596 32.6749 28.6265 33.2916 28.8819C33.9083 29.1374 34.4354 29.5699 34.8062 30.125C35.1771 30.68 35.375 31.3325 35.375 32C35.375 32.8951 35.0194 33.7536 34.3865 34.3865C33.7536 35.0194 32.8951 35.375 32 35.375ZM47.75 21.875H16.25C15.9516 21.875 15.6655 21.9935 15.4545 22.2045C15.2435 22.4155 15.125 22.7016 15.125 23V41C15.125 41.2984 15.2435 41.5845 15.4545 41.7955C15.6655 42.0065 15.9516 42.125 16.25 42.125H47.75C48.0484 42.125 48.3345 42.0065 48.5455 41.7955C48.7565 41.5845 48.875 41.2984 48.875 41V23C48.875 22.7016 48.7565 22.4155 48.5455 22.2045C48.3345 21.9935 48.0484 21.875 47.75 21.875ZM41.232 39.875H22.768C22.3903 38.5976 21.6989 37.4349 20.757 36.493C19.8151 35.5511 18.6524 34.8597 17.375 34.482V29.518C18.6524 29.1403 19.8151 28.4489 20.757 27.507C21.6989 26.5651 22.3903 25.4024 22.768 24.125H41.232C41.6097 25.4024 42.3011 26.5651 43.243 27.507C44.1849 28.4489 45.3476 29.1403 46.625 29.518V34.482C45.3476 34.8597 44.1849 35.5511 43.243 36.493C42.3011 37.4349 41.6097 38.5976 41.232 39.875ZM46.625 27.1302C45.2756 26.5499 44.2001 25.4744 43.6198 24.125H46.625V27.1302ZM20.3802 24.125C19.7999 25.4744 18.7244 26.5499 17.375 27.1302V24.125H20.3802ZM17.375 36.8698C18.7244 37.4501 19.7999 38.5256 20.3802 39.875H17.375V36.8698ZM43.6198 39.875C44.2001 38.5256 45.2756 37.4501 46.625 36.8698V39.875H43.6198Z" fill="white"/>
</svg>
