<svg width="23" height="29" viewBox="0 0 23 29" fill="none" xmlns="http://www.w3.org/2000/svg">
<path d="M11.6309 6.47694e-05C8.86082 -0.00919092 6.179 0.973823 4.07109 2.77109C1.96318 4.56835 0.56855 7.06103 0.139752 9.79774C-0.289045 12.5344 0.276335 15.3342 1.73352 17.6901C3.1907 20.0459 5.44334 21.8021 8.0835 22.6405C10.5869 23.4459 12.8447 23.1293 15.3435 22.613C16.0112 23.9507 14.6551 26.9061 14.1044 28.2324C14.3201 27.7047 15.2219 27.1723 15.628 26.7754C18.572 23.8934 20.9858 20.1211 22.2272 16.1791C23.4342 12.3586 23.3929 7.96221 20.9078 4.65344C19.8253 3.21473 18.4245 2.04602 16.8151 1.23874C15.2057 0.431457 13.4314 0.00750781 11.6309 6.47694e-05ZM8.86595 12.5146C8.68442 12.5146 8.50697 12.4608 8.35603 12.36C8.2051 12.2591 8.08746 12.1158 8.01799 11.948C7.94852 11.7803 7.93035 11.5958 7.96576 11.4177C8.00118 11.2397 8.08859 11.0762 8.21695 10.9478C8.34531 10.8194 8.50885 10.732 8.68689 10.6966C8.86493 10.6612 9.04948 10.6794 9.21719 10.7488C9.3849 10.8183 9.52825 10.9359 9.6291 11.0869C9.72995 11.2378 9.78378 11.4153 9.78378 11.5968C9.78378 11.8402 9.68708 12.0737 9.51495 12.2458C9.34283 12.4179 9.10937 12.5146 8.86595 12.5146ZM11.6309 12.5146C11.4494 12.5146 11.2719 12.4608 11.121 12.36C10.9701 12.2591 10.8524 12.1158 10.7829 11.948C10.7135 11.7803 10.6953 11.5958 10.7307 11.4177C10.7661 11.2397 10.8535 11.0762 10.9819 10.9478C11.1103 10.8194 11.2738 10.732 11.4518 10.6966C11.6299 10.6612 11.8144 10.6794 11.9821 10.7488C12.1499 10.8183 12.2932 10.9359 12.394 11.0869C12.4949 11.2378 12.5487 11.4153 12.5487 11.5968C12.5487 11.8402 12.452 12.0737 12.2799 12.2458C12.1078 12.4179 11.8743 12.5146 11.6309 12.5146ZM14.3982 12.5146C14.2166 12.5146 14.0392 12.4608 13.8882 12.36C13.7373 12.2591 13.6197 12.1158 13.5502 11.948C13.4807 11.7803 13.4625 11.5958 13.498 11.4177C13.5334 11.2397 13.6208 11.0762 13.7492 10.9478C13.8775 10.8194 14.0411 10.732 14.2191 10.6966C14.3971 10.6612 14.5817 10.6794 14.7494 10.7488C14.9171 10.8183 15.0604 10.9359 15.1613 11.0869C15.2621 11.2378 15.316 11.4153 15.316 11.5968C15.316 11.8402 15.2193 12.0737 15.0472 12.2458C14.875 12.4179 14.6416 12.5146 14.3982 12.5146Z" fill="#229B55"/>
</svg>
